<?xml version="1.0" standalone="no"?>
<!DOCTYPE svg PUBLIC "-//W3C//DTD SVG 20010904//EN"
 "http://www.w3.org/TR/2001/REC-SVG-20010904/DTD/svg10.dtd">
<svg version="1.0" xmlns="http://www.w3.org/2000/svg"
 width="1024.000000pt" height="1024.000000pt" viewBox="0 0 1024.000000 1024.000000"
 preserveAspectRatio="xMidYMid meet">

<g transform="translate(0.000000,1024.000000) scale(0.100000,-0.100000)"
fill="#000000" stroke="none">
<path d="M5135 8284 c-21 -16 -82 -15 -120 1 -20 8 -20 8 -1 -13 25 -29 68
-37 105 -18 29 15 47 34 39 41 -1 2 -12 -3 -23 -11z"/>
<path d="M4560 8219 c-139 -18 -278 -104 -360 -224 -34 -50 -80 -165 -80 -199
0 -20 -5 -26 -23 -26 -69 0 -202 -56 -253 -107 -8 -8 -19 -11 -25 -7 -8 4 -9
3 -5 -5 4 -6 -4 -25 -19 -42 -49 -59 -85 -155 -85 -228 0 -20 -7 -39 -17 -47
-17 -13 -17 -14 0 -8 9 3 17 1 17 -5 0 -6 -6 -11 -13 -11 -32 0 -138 -64 -178
-108 -24 -26 -48 -46 -52 -44 -5 1 -6 -2 -3 -7 6 -8 -21 -78 -34 -91 -6 -6 -7
-9 -19 -109 -7 -55 -7 -89 -1 -101 6 -10 10 -25 10 -32 -1 -7 -7 1 -14 17 -12
27 -14 28 -21 10 -14 -39 -14 -45 -3 -45 6 0 9 -3 5 -6 -4 -5 -77 38 -107 63
-2 2 1 8 9 12 13 9 61 -8 61 -21 0 -12 -14 -10 -28 4 -6 6 -14 9 -18 6 -3 -4
8 -14 26 -23 37 -19 46 -15 31 13 -6 11 -7 22 -4 26 3 3 -1 6 -11 6 -9 0 -19
7 -23 15 -5 14 -8 14 -25 -2 -18 -16 -19 -16 -12 2 5 13 4 16 -4 11 -7 -4 -12
-2 -12 4 0 6 6 10 13 9 24 -3 35 1 41 17 4 10 2 13 -6 8 -7 -5 -8 -3 -4 5 5 7
14 10 22 7 18 -7 31 21 16 36 -6 6 -8 17 -5 24 3 8 0 14 -7 14 -7 0 -10 6 -7
14 7 17 -16 39 -28 28 -5 -4 -5 -1 -1 6 4 6 2 12 -4 12 -7 0 -10 -7 -6 -17 6
-17 5 -17 -8 0 -13 17 -14 16 -19 -2 -3 -15 -1 -18 12 -14 15 4 15 3 -1 -9
-13 -11 -16 -35 -16 -137 0 -102 -3 -127 -18 -146 -11 -14 -22 -21 -29 -16 -5
5 -22 10 -37 13 -21 4 -31 -1 -47 -23 -13 -17 -18 -35 -14 -46 6 -15 5 -16 -9
-3 -15 14 -15 17 1 35 10 11 21 28 24 38 5 13 13 16 27 12 19 -6 20 -2 20 139
0 141 -1 146 -21 146 -29 0 -59 18 -59 36 0 9 -5 12 -12 8 -7 -4 -3 8 8 27 15
26 29 35 57 40 55 9 56 18 3 14 -25 -2 -46 0 -46 5 0 4 15 7 33 6 31 -1 32 0
35 47 3 38 0 47 -13 47 -9 0 -24 -7 -32 -16 -14 -13 -14 -17 -2 -25 9 -6 15
-4 17 6 6 27 19 16 17 -15 -2 -37 -9 -44 -32 -36 -14 6 -15 9 -4 15 10 7 8 12
-10 25 l-24 16 33 31 c17 16 37 27 42 24 6 -3 10 -2 10 4 0 19 -23 24 -36 7
-10 -14 -17 -15 -32 -7 -11 6 -23 7 -26 3 -4 -4 -12 1 -17 11 -15 25 -27 21
-22 -8 4 -20 10 -24 34 -21 19 2 29 -1 29 -10 0 -9 -10 -11 -33 -7 -23 3 -37
0 -47 -12 -11 -13 -11 -18 -1 -25 14 -8 6 -50 -10 -50 -14 0 -11 20 4 21 6 0
1 5 -12 10 -19 8 -21 12 -11 24 10 12 10 15 -1 15 -14 0 -59 -47 -59 -62 0 -5
3 -7 8 -5 4 3 16 0 27 -4 18 -9 18 -9 -3 -5 -14 3 -25 -1 -29 -10 -8 -22 -22
-6 -18 23 3 26 2 26 -12 8 -10 -15 -16 -17 -21 -8 -11 17 -96 -163 -87 -185 3
-9 3 -13 -1 -9 -4 4 -13 -5 -19 -20 -14 -33 0 -49 25 -30 13 10 13 10 1 -5 -7
-10 -11 -25 -7 -33 3 -9 2 -13 -4 -10 -6 3 -10 13 -10 21 0 8 -6 14 -13 14
-17 0 -60 -148 -52 -175 5 -14 4 -16 -3 -7 -19 28 -79 -251 -103 -478 -20
-195 -15 -430 15 -625 24 -161 90 -433 122 -502 18 -40 18 -44 -3 -36 -12 4
-8 -3 10 -20 29 -28 40 -71 12 -47 -8 6 -19 9 -25 5 -12 -7 -14 -26 -2 -24 45
7 60 -2 73 -46 7 -25 17 -45 21 -45 4 0 8 -5 8 -10 0 -6 -8 -5 -19 2 -11 7
-17 16 -15 20 3 4 2 8 -3 8 -20 -1 -32 -18 -35 -55 -2 -33 -7 -41 -27 -43 -13
-2 -28 1 -35 8 -8 8 -7 10 6 5 23 -9 48 17 48 49 0 14 8 30 18 35 13 8 14 10
2 11 -13 0 -13 1 0 10 12 8 13 11 1 19 -11 7 -11 10 0 15 8 3 5 4 -6 3 -13 -2
-19 -9 -17 -21 3 -15 0 -16 -18 -6 -25 13 -42 4 -20 -10 13 -9 13 -10 0 -11
-10 0 -8 -3 5 -9 16 -7 17 -9 3 -9 -9 -1 -20 4 -23 9 -5 8 -11 7 -21 -1 -11
-9 -14 -8 -14 8 0 10 -5 24 -12 31 -9 9 -9 15 0 24 8 8 12 8 12 1 0 -14 35
-23 51 -12 11 7 11 9 2 10 -28 3 -32 4 -40 13 -5 5 1 7 15 3 12 -3 22 -1 22 4
0 5 -6 9 -12 9 -18 0 -96 -29 -80 -30 7 0 10 -4 7 -10 -3 -5 2 -22 12 -36 l18
-27 -35 6 c-19 4 -38 13 -42 20 -6 9 -8 9 -8 -1 0 -8 9 -16 21 -19 11 -3 16
-9 10 -12 -6 -4 -7 -12 0 -21 8 -13 10 -13 18 0 6 8 14 11 18 6 4 -5 2 -11 -4
-13 -7 -3 -13 -16 -13 -29 0 -14 4 -22 10 -19 6 3 10 -4 10 -16 0 -28 41 -110
52 -103 4 3 8 -3 8 -13 0 -23 22 -73 33 -73 4 0 7 -5 7 -11 0 -5 23 -44 50
-86 27 -42 50 -79 50 -82 0 -4 8 -16 18 -27 9 -10 34 -43 56 -71 21 -29 42
-53 47 -53 5 0 9 -5 9 -11 0 -19 162 -198 267 -295 361 -335 804 -554 1358
-671 125 -26 141 -27 435 -27 275 0 318 2 435 23 538 96 956 286 1330 605 154
131 393 387 434 465 8 14 18 27 22 29 17 7 90 132 83 143 -4 8 -3 9 4 5 13 -8
79 101 74 123 -2 7 1 10 6 7 9 -6 39 52 34 67 -1 4 3 7 8 7 17 0 11 18 -7 23
-14 4 -13 5 4 6 14 1 27 13 37 33 18 34 21 51 6 28 -8 -13 -10 -13 -10 2 0 9
8 21 17 27 10 5 15 13 10 17 -13 13 -47 -37 -41 -61 7 -30 -10 -40 -31 -18
-16 16 -17 14 -14 -30 4 -50 0 -57 -22 -31 -10 13 -10 17 2 24 11 7 11 12 2
21 -10 10 -18 7 -38 -15 -14 -15 -23 -31 -20 -36 8 -13 -15 -24 -26 -13 -6 6
-4 14 5 22 8 7 12 19 9 27 -3 8 1 14 10 14 9 0 23 7 31 16 9 8 20 12 26 9 15
-10 12 -2 -15 35 -14 19 -25 27 -25 19 0 -8 5 -20 12 -27 14 -14 5 -25 -24
-27 -17 -1 -27 8 -40 34 -9 20 -17 29 -17 21 -1 -9 4 -21 9 -26 14 -14 2 -44
-16 -44 -15 0 -19 -12 -7 -23 3 -4 12 -2 20 5 7 6 17 8 21 4 4 -4 -1 -12 -10
-17 -14 -7 -15 -15 -8 -34 7 -18 6 -23 -4 -19 -7 3 -18 -5 -24 -18 -6 -13 -11
-17 -11 -10 -1 6 -6 12 -12 12 -5 0 -9 -10 -7 -21 2 -15 -3 -23 -14 -25 -10
-1 -16 3 -15 9 1 7 -3 11 -10 10 -9 -2 -10 4 -3 23 6 14 7 30 4 36 -4 7 -2 8
4 4 7 -4 9 -17 6 -31 -3 -12 -1 -26 5 -29 9 -6 13 3 13 34 1 3 -2 18 -6 33 -5
21 -4 27 5 21 8 -5 10 -2 7 8 -4 8 -2 21 4 29 8 11 9 10 4 -3 -3 -10 -2 -18 3
-18 11 0 21 38 12 42 -13 5 18 68 34 68 8 0 15 5 15 11 0 5 -4 8 -9 5 -5 -4
-7 4 -4 15 6 21 7 21 20 -5 16 -30 22 -31 49 -11 16 12 17 14 2 15 -9 0 -19
-6 -21 -12 -4 -10 -8 -9 -16 2 -14 20 -14 31 1 27 15 -3 17 33 3 52 -8 12 -7
13 4 6 11 -6 13 -3 8 14 -7 28 2 53 16 44 5 -3 7 -1 4 4 -4 6 1 32 9 58 12 34
19 43 26 34 6 -10 7 -6 3 11 -3 14 6 66 20 115 14 50 28 101 31 115 61 292 68
366 61 654 -4 133 -11 264 -16 291 -15 79 -18 97 -26 145 -4 25 -13 67 -21 93
-7 27 -13 52 -12 55 1 4 -2 14 -5 22 -3 8 -27 78 -52 155 -46 140 -130 346
-145 355 -5 3 -11 16 -15 30 -8 33 -33 65 -42 56 -4 -4 -2 -11 6 -15 7 -5 12
-10 11 -12 -3 -7 11 -64 21 -81 12 -22 11 -28 -1 -28 -5 0 -10 7 -10 16 0 10
-6 14 -15 10 -12 -4 -13 -2 -3 13 15 25 4 52 -19 44 -15 -5 -16 -3 -5 8 17 18
15 29 -5 29 -15 0 -14 3 5 18 l22 17 -27 43 c-27 42 -43 48 -51 22 -3 -9 1
-11 12 -7 9 4 16 2 16 -3 0 -12 -10 -13 -75 -10 -27 1 -52 5 -55 8 -10 13 -51
9 -46 -4 3 -8 1 -16 -4 -19 -12 -8 -13 -25 -1 -25 5 0 11 9 14 20 3 11 13 20
22 20 12 0 15 -5 10 -21 -6 -18 -3 -20 22 -17 16 2 27 8 25 16 -3 17 6 15 26
-4 10 -11 17 -13 20 -5 5 14 32 15 32 1 0 -5 -7 -10 -16 -10 -14 0 -14 -3 -4
-15 11 -13 10 -14 -4 -9 -9 3 -16 1 -16 -5 0 -6 6 -11 13 -11 8 0 7 -4 -3 -10
-13 -8 -12 -10 3 -10 9 0 17 -5 17 -11 0 -7 -9 -9 -24 -5 -21 5 -25 2 -31 -30
-5 -27 -10 -34 -22 -30 -13 5 -14 4 -3 -9 9 -11 9 -15 1 -15 -6 0 -14 7 -17
15 -7 18 -24 20 -24 2 0 -7 9 -18 20 -25 21 -13 27 -56 11 -81 -5 -8 -25 -15
-45 -15 l-35 -1 1 -57 c1 -49 4 -58 19 -58 9 0 19 5 21 12 5 13 38 20 38 8 0
-5 -4 -12 -10 -15 -5 -3 -10 -1 -10 4 0 6 -9 2 -20 -9 -12 -12 -26 -18 -31
-14 -8 5 -10 -18 -8 -74 2 -44 1 -78 -3 -75 -5 2 -8 -3 -8 -11 0 -9 -4 -16 -9
-16 -5 0 -16 -3 -24 -6 -17 -6 -67 37 -67 57 0 11 2 11 10 -1 7 -11 10 -7 10
17 0 17 -5 35 -11 39 -8 5 -8 9 1 14 17 10 17 124 1 144 -8 9 -21 16 -30 16
-14 -1 -14 -2 2 -11 17 -10 24 -54 9 -63 -5 -3 -6 8 -4 25 3 17 0 29 -7 29 -6
0 -11 -8 -12 -17 -1 -12 -4 -9 -8 7 -6 19 -3 28 13 37 26 15 39 16 31 3 -3 -5
-1 -10 4 -10 7 0 11 30 11 80 0 71 -2 80 -19 80 -15 0 -18 7 -15 35 1 19 -2
37 -7 40 -5 4 -6 0 -3 -8 3 -8 -2 -14 -11 -14 -14 0 -19 10 -16 30 1 5 -3 6
-8 3 -5 -4 -11 -1 -13 6 -3 7 -7 5 -11 -6 -4 -9 -3 -15 3 -11 15 9 34 -35 21
-48 -16 -16 -13 -28 7 -27 35 4 63 -12 60 -34 -2 -15 -9 -20 -26 -19 -12 2
-22 -2 -22 -7 0 -6 9 -10 20 -10 11 0 20 -3 21 -7 0 -5 2 -18 5 -31 3 -20 2
-21 -16 -12 -15 8 -20 8 -20 -3 0 -7 -11 -20 -25 -27 -13 -7 -26 -20 -28 -29
-4 -13 -5 -13 -6 2 -1 13 -6 17 -20 12 -14 -4 -23 0 -30 14 -15 27 -14 31 5
24 8 -3 13 -12 10 -19 -3 -8 -1 -14 4 -14 6 0 10 6 10 14 0 19 57 39 64 23 2
-7 5 -4 5 6 1 9 8 17 16 17 8 0 15 4 15 9 0 11 -19 9 -38 -3 -7 -4 -16 -5 -19
-2 -4 3 -2 6 4 6 5 0 10 7 10 15 0 8 -4 15 -9 15 -4 0 -8 7 -8 16 0 12 6 15
26 10 15 -4 23 -3 20 2 -3 5 -17 12 -31 14 -23 5 -24 3 -23 -39 2 -45 -13 -68
-40 -58 -8 3 -20 5 -27 5 -7 0 -15 7 -18 14 -4 10 -1 13 7 10 7 -3 20 6 30 20
13 21 14 24 1 20 -8 -4 -15 -12 -15 -19 0 -18 -33 -8 -48 15 -9 15 -9 22 3 33
12 13 10 15 -12 15 -18 0 -21 -3 -12 -9 8 -5 9 -9 3 -9 -5 0 -20 13 -32 29
-12 16 -40 40 -62 52 -22 12 -40 26 -40 29 0 4 -18 13 -40 20 -40 13 -40 14
-40 64 0 28 -3 62 -7 75 -4 17 -3 22 5 17 8 -5 10 -2 6 9 -4 9 -9 13 -12 11
-3 -3 -18 20 -33 52 -31 65 -86 127 -146 165 -48 30 -154 67 -194 67 -23 0
-30 5 -34 28 -25 120 -78 215 -162 292 -106 97 -223 136 -378 127 -156 -8
-281 -71 -369 -184 -23 -28 -43 -52 -46 -52 -3 0 -26 26 -51 57 -108 134 -289
204 -469 181z m224 -177 c80 -38 131 -88 170 -171 31 -65 31 -68 34 -250 l4
-184 -30 22 c-17 11 -65 60 -108 107 l-78 85 17 29 c21 36 22 102 1 146 -46
96 -186 97 -244 2 -41 -67 -11 -181 54 -212 19 -9 38 -16 43 -17 10 -1 200
-209 225 -247 16 -22 18 -39 12 -97 -7 -82 2 -96 63 -98 l38 -2 3 -172 2 -173
-206 0 -207 0 -86 -85 -87 -85 -275 0 -274 0 -93 -97 c-52 -54 -139 -146 -195
-205 -55 -60 -106 -108 -112 -108 -34 0 -45 97 -19 176 14 42 42 74 200 231
177 175 184 184 184 222 0 22 3 47 6 56 11 27 60 45 122 45 l59 0 17 -43 c9
-24 29 -55 44 -69 29 -28 115 -62 120 -48 2 5 14 5 28 0 29 -11 63 -2 42 11
-7 5 -21 6 -30 3 -13 -4 -18 0 -19 13 0 10 -3 13 -6 6 -6 -17 -23 -16 -23 1 0
15 16 16 39 2 9 -6 12 -5 7 2 -3 6 -2 13 3 16 5 3 11 0 14 -8 8 -20 55 -29 71
-13 23 22 30 57 12 57 -9 0 -16 5 -16 10 0 6 4 10 10 10 5 0 12 11 16 25 3 14
10 25 14 25 4 0 7 16 6 36 -1 20 4 38 10 41 18 7 10 66 -12 96 -32 44 -85 67
-151 67 -71 0 -112 -23 -154 -85 l-27 -40 -110 -5 c-91 -4 -115 -9 -138 -26
-46 -34 -65 -67 -71 -127 -3 -31 -9 -57 -13 -57 -3 0 -25 -16 -47 -35 -51 -43
-55 -38 -61 71 -4 71 -1 89 20 135 28 61 84 121 143 152 32 16 62 21 145 24
93 2 107 5 123 24 25 31 21 64 -10 89 -23 18 -35 20 -74 15 -42 -6 -48 -4 -54
14 -16 52 33 173 88 215 41 32 108 56 153 56 l34 0 0 -129 c0 -163 -2 -161
147 -161 111 0 133 9 133 56 0 54 -15 64 -90 64 l-70 0 0 148 c0 154 10 214
49 289 86 169 290 237 465 155z m821 23 c119 -31 191 -89 246 -195 23 -46 23
-46 32 -327 l3 -92 -70 -3 c-64 -3 -72 -5 -85 -29 -12 -22 -12 -29 0 -55 l14
-29 109 -3 c149 -4 146 -7 146 161 l0 130 54 -6 c129 -13 226 -112 226 -230
l0 -55 -56 2 c-44 1 -58 -3 -70 -18 -17 -24 -18 -80 -1 -94 6 -5 57 -12 112
-14 116 -4 165 -23 234 -89 55 -54 81 -114 81 -191 0 -58 -17 -138 -29 -138
-3 0 -25 17 -49 39 -37 34 -42 44 -42 81 0 56 -33 112 -80 139 -31 17 -55 21
-136 21 l-99 0 -32 50 c-41 61 -77 81 -152 81 -75 1 -166 -44 -160 -77 3 -21
-2 -35 -11 -29 -15 9 -21 -64 -7 -82 6 -9 5 -13 -3 -13 -8 0 -10 -7 -5 -17 4
-10 8 -24 9 -31 1 -8 8 -17 16 -22 7 -4 10 -15 7 -24 -4 -9 -2 -16 2 -16 5 0
11 6 14 13 3 6 4 2 4 -10 -1 -15 -6 -20 -20 -17 -10 2 -17 -2 -15 -7 2 -6 7
-9 11 -7 3 2 14 -7 22 -20 34 -47 140 -67 208 -38 44 18 86 62 109 114 l19 42
63 0 c88 0 116 -22 116 -92 l0 -51 178 -179 c99 -100 185 -195 194 -216 29
-63 19 -192 -15 -192 -7 0 -98 90 -201 199 -104 110 -195 202 -203 205 -8 3
-135 6 -281 6 l-267 0 -81 85 -81 85 -209 2 -209 3 -3 164 c-3 179 -2 181 54
181 48 0 58 19 50 99 -7 67 -7 68 28 110 85 101 214 230 246 245 20 9 48 35
63 58 83 128 -49 280 -183 210 -63 -34 -90 -134 -54 -203 l15 -30 -79 -87
c-100 -110 -118 -126 -131 -117 -14 8 -14 224 -2 312 23 159 119 267 271 309
61 17 95 17 165 -1z m1462 -721 c-3 -3 -12 -4 -19 -1 -8 3 -5 6 6 6 11 1 17
-2 13 -5z m-3989 -99 c0 -15 -6 -25 -14 -25 -14 0 -20 41 -8 53 12 11 22 -2
22 -28z m3772 -26 c0 -3 -7 -6 -15 -6 -17 0 -17 0 -9 22 5 13 8 14 15 3 5 -7
9 -16 9 -19z m325 21 c-3 -5 -13 -10 -21 -10 -8 0 -17 -6 -20 -14 -3 -8 -11
-17 -18 -19 -11 -4 -11 0 -2 19 6 13 18 25 26 28 28 7 41 6 35 -4z m-4190 -28
c-3 -3 -11 0 -18 7 -9 10 -8 11 6 5 10 -3 15 -9 12 -12z m58 -27 c-3 -9 -8
-14 -10 -11 -3 3 -2 9 2 15 9 16 15 13 8 -4z m37 6 c0 -5 -7 -17 -15 -25 -12
-11 -13 -20 -6 -34 6 -11 7 -32 2 -48 -6 -24 -13 -29 -42 -31 -34 -1 -34 -1
-4 5 25 6 31 13 33 41 l3 34 -40 -7 -41 -6 21 21 c16 16 23 18 35 8 8 -6 14
-7 14 -2 0 8 31 53 38 53 1 0 2 -4 2 -9z m4104 -2 c-3 -6 0 -16 7 -21 12 -8
11 -9 -1 -5 -18 4 -27 37 -10 37 6 0 8 -5 4 -11z m-64 -14 c-26 -15 -22 -18
20 -16 21 0 20 -1 -7 -10 -18 -5 -33 -16 -33 -24 0 -7 -4 -16 -9 -19 -5 -3 -8
5 -8 19 0 14 4 22 9 19 6 -4 8 2 4 14 -5 15 -2 22 11 25 34 9 38 6 13 -8z
m-4026 -19 c-3 -9 -10 -16 -15 -16 -6 0 -5 9 1 21 13 24 24 20 14 -5z m-131
-16 c-8 -29 -21 -25 -15 5 2 14 8 23 12 20 5 -3 6 -14 3 -25z m4267 20 c0 -5
-4 -10 -10 -10 -5 0 -10 5 -10 10 0 6 5 10 10 10 6 0 10 -4 10 -10z m-4330
-16 c0 -2 -7 -4 -15 -4 -8 0 -15 4 -15 10 0 5 7 7 15 4 8 -4 15 -8 15 -10z
m4360 -4 c0 -5 -4 -10 -10 -10 -5 0 -10 5 -10 10 0 6 5 10 10 10 6 0 10 -4 10
-10z m-134 -25 c-4 -12 0 -14 22 -10 22 4 24 4 7 -4 -17 -8 -18 -10 -2 -10 17
-1 25 -21 8 -21 -6 0 -13 5 -16 10 -13 21 -25 9 -20 -19 3 -17 2 -32 -3 -34
-9 -6 -57 31 -49 39 3 3 15 -5 27 -18 l22 -23 -7 25 c-5 14 -7 31 -7 38 1 6 3
19 4 27 1 8 6 15 11 15 5 0 7 -7 3 -15z m51 9 c-3 -3 -12 -4 -19 -1 -8 3 -5 6
6 6 11 1 17 -2 13 -5z m-4252 -22 c-3 -3 -11 0 -18 7 -9 10 -8 11 6 5 10 -3
15 -9 12 -12z m4285 -9 c0 -19 -13 -9 -16 12 -1 8 2 13 7 9 5 -3 9 -12 9 -21z
m-4217 10 c-7 -2 -21 -2 -30 0 -10 3 -4 5 12 5 17 0 24 -2 18 -5z m-48 -21
c-8 -8 -65 -10 -60 -2 2 4 18 7 35 7 16 0 28 -3 25 -5z m24 -13 c-12 -8 -11
-11 1 -19 11 -8 7 -9 -15 -4 -23 4 -26 3 -15 -5 13 -10 13 -11 0 -11 -8 1 -24
8 -35 16 -20 16 -20 16 2 10 15 -5 28 -1 40 12 10 10 22 17 27 14 4 -2 2 -8
-5 -13z m1288 -1 c29 -27 31 -80 3 -108 -30 -30 -83 -27 -110 7 -57 72 40 164
107 101z m1755 -11 c49 -62 -13 -139 -87 -111 -26 10 -44 62 -33 95 18 51 85
60 120 16z m-2907 10 c10 -8 14 -16 9 -19 -5 -3 -18 3 -28 13 -22 22 -9 26 19
6z m4085 -7 c-8 -5 -22 -9 -30 -9 -10 0 -8 3 5 9 27 12 43 12 25 0z m-3870 -8
c0 -4 -6 -14 -12 -21 -11 -10 -10 -12 1 -9 8 2 17 -5 19 -14 2 -10 -1 -18 -7
-18 -6 0 -11 5 -11 10 0 6 -4 10 -10 10 -13 0 -13 -27 -1 -32 5 -1 7 -15 4
-31 -4 -21 -8 -25 -18 -17 -16 13 -12 95 6 116 13 15 29 19 29 6z m-231 -24
c0 -16 -2 -18 -6 -8 -3 8 -11 18 -17 22 -7 5 -4 8 7 8 11 0 17 -7 16 -22z m53
-3 c-2 -14 -8 -28 -13 -31 -5 -3 -9 -16 -9 -30 0 -16 -5 -24 -17 -23 -11 0
-13 3 -5 6 6 2 12 10 12 18 0 14 28 85 34 85 2 0 1 -11 -2 -25z m19 -46 c-7
-21 -7 -29 1 -29 6 0 9 -3 5 -6 -3 -4 -13 -4 -21 -1 -13 5 -12 12 2 56 12 34
18 44 20 30 2 -11 -1 -33 -7 -50z m3893 62 c4 -5 -4 -7 -15 -4 -19 5 -21 3
-17 -20 3 -15 1 -24 -3 -21 -5 3 -9 14 -9 24 0 10 -6 21 -12 23 -7 3 1 6 19 6
17 1 34 -3 37 -8z m164 -5 c-7 -8 -15 -12 -17 -11 -5 6 10 25 20 25 5 0 4 -6
-3 -14z m-4174 -11 c-4 -8 -11 -12 -16 -9 -6 4 -5 10 3 15 19 12 19 11 13 -6z
m-141 -20 c-7 -21 -13 -19 -13 6 0 11 4 18 10 14 5 -3 7 -12 3 -20z m3911 9
c3 -8 2 -12 -4 -9 -6 3 -10 10 -10 16 0 14 7 11 14 -7z m-46 -12 c2 -7 -2 -10
-12 -6 -9 3 -16 11 -16 16 0 13 23 5 28 -10z m283 -5 c-10 -9 -11 -8 -5 6 3
10 9 15 12 12 3 -3 0 -11 -7 -18z m-4094 7 c-3 -3 -12 -4 -19 -1 -8 3 -5 6 6
6 11 1 17 -2 13 -5z m113 -4 c0 -5 -7 -10 -16 -10 -8 0 -12 5 -9 10 3 6 10 10
16 10 5 0 9 -4 9 -10z m-87 -34 c12 2 16 2 9 -2 -6 -3 -9 -11 -6 -16 5 -7 2
-8 -7 -3 -30 17 -39 28 -32 39 5 7 9 6 11 -5 2 -11 10 -15 25 -13z m4021 8 c3
-8 2 -12 -4 -9 -6 3 -10 10 -10 16 0 14 7 11 14 -7z m-3949 -15 c11 -16 1 -19
-13 -3 -7 8 -8 14 -3 14 5 0 13 -5 16 -11z m4032 -21 c-3 -7 -5 -2 -5 12 0 14
2 19 5 13 2 -7 2 -19 0 -25z m158 22 c3 -6 -1 -7 -9 -4 -18 7 -21 14 -7 14 6
0 13 -4 16 -10z m-474 -60 c5 0 18 -9 28 -19 18 -18 18 -20 3 -26 -14 -5 -14
-7 -2 -16 12 -8 12 -10 1 -7 -8 2 -16 15 -18 28 -2 14 -10 28 -18 33 -9 5 -14
21 -13 40 l1 32 4 -32 c2 -18 8 -33 14 -33z m505 45 c-3 -20 -16 -31 -16 -13
0 13 8 28 16 28 1 0 1 -7 0 -15z m-4339 -1 c-3 -3 -12 -4 -19 -1 -8 3 -5 6 6
6 11 1 17 -2 13 -5z m103 2 c0 -2 -8 -10 -17 -17 -16 -13 -17 -12 -4 4 13 16
21 21 21 13z m-70 -16 c0 -5 6 -10 14 -10 21 0 30 -20 17 -33 -9 -9 -11 -8 -6
4 3 9 1 16 -7 16 -9 0 -12 -12 -10 -38 4 -34 1 -40 -24 -51 -16 -7 -32 -17
-36 -23 -5 -6 -8 -2 -8 8 0 11 -9 21 -20 24 -11 3 -20 10 -20 15 0 5 5 6 11 2
7 -4 7 1 -1 16 -9 16 -9 20 0 15 7 -5 10 2 8 22 -3 26 -1 28 34 27 20 0 35 3
32 8 -3 4 0 8 5 8 6 0 11 -4 11 -10z m4180 0 c0 -5 -2 -10 -4 -10 -3 0 -8 5
-11 10 -3 6 -1 10 4 10 6 0 11 -4 11 -10z m40 0 c-19 -13 -30 -13 -30 0 0 6
10 10 23 10 18 0 19 -2 7 -10z m-4110 -37 c-11 -17 -11 -17 -6 0 3 10 6 24 7
30 0 9 2 9 5 0 3 -7 0 -20 -6 -30z m3740 33 c0 -2 -7 -6 -15 -10 -8 -3 -15 -1
-15 4 0 6 7 10 15 10 8 0 15 -2 15 -4z m415 -6 c-6 -10 5 -13 35 -11 9 0 10
-2 3 -5 -8 -4 -9 -13 -4 -27 11 -30 -18 -67 -52 -67 -14 0 -27 -3 -30 -7 -2
-5 -2 -2 -1 5 2 7 -3 15 -11 18 -8 4 -15 12 -15 19 0 7 -6 16 -12 18 -8 4 -7
6 3 6 9 1 20 12 23 25 4 17 15 26 34 29 15 2 28 5 30 6 2 0 0 -3 -3 -9z
m-4189 -12 c4 -7 3 -8 -4 -4 -7 4 -12 2 -12 -5 0 -7 -3 -10 -6 -6 -6 5 3 27
11 27 2 0 7 -5 11 -12z m124 2 c0 -5 -2 -10 -4 -10 -3 0 -8 5 -11 10 -3 6 -1
10 4 10 6 0 11 -4 11 -10z m3657 -22 c-3 -8 -6 -5 -6 6 -1 11 2 17 5 13 3 -3
4 -12 1 -19z m263 18 c0 -3 -4 -8 -10 -11 -5 -3 -10 -1 -10 4 0 6 5 11 10 11
6 0 10 -2 10 -4z m67 -18 c-3 -8 -6 -5 -6 6 -1 11 2 17 5 13 3 -3 4 -12 1 -19z
m-4027 -31 c0 -5 -4 -5 -10 -2 -5 3 -10 14 -10 23 0 15 2 15 10 2 5 -8 10 -19
10 -23z m36 13 c0 -11 -1 -20 -3 -20 -1 0 -7 9 -13 20 -8 15 -8 20 3 20 7 0
13 -9 13 -20z m2682 -4 c-4 -19 -1 -23 11 -19 13 5 14 3 4 -8 -18 -18 -37 2
-28 30 9 29 18 27 13 -3z m1173 -8 c-4 -32 -5 -32 -11 -8 -7 26 -4 40 9 40 4
0 5 -15 2 -32z m113 20 c-3 -4 -11 -5 -19 -1 -21 7 -19 12 4 10 11 0 18 -5 15
-9z m-4377 -20 c-3 -8 -6 -5 -6 6 -1 11 2 17 5 13 3 -3 4 -12 1 -19z m1563 7
c0 -8 -5 -15 -11 -15 -5 0 -7 5 -4 10 3 6 1 10 -6 10 -6 0 -9 -8 -6 -20 3 -11
1 -20 -3 -20 -14 0 -22 19 -16 35 7 20 46 19 46 0z m1588 -8 c6 -5 12 -15 12
-21 0 -6 -5 -3 -11 7 -5 9 -16 17 -24 17 -8 0 -17 4 -20 10 -7 11 23 2 43 -13z
m-2817 -4 c13 -16 12 -17 -3 -4 -10 7 -18 15 -18 17 0 8 8 3 21 -13z m-90 -16
c-6 -6 -11 -18 -11 -26 0 -12 3 -12 18 1 30 27 43 10 20 -28 -11 -19 -23 -33
-25 -30 -3 2 3 16 12 30 18 26 9 36 -13 14 -6 -6 -14 -9 -18 -6 -10 10 7 69
18 62 6 -4 6 -10 -1 -17z m3760 10 c-6 -8 -8 -16 -5 -19 3 -3 1 -8 -4 -12 -13
-8 -11 28 2 36 17 12 20 9 7 -5z m-871 -18 c0 -11 -4 -18 -10 -14 -5 3 -7 12
-3 20 7 21 13 19 13 -6z m67 15 c-3 -3 -12 -4 -19 -1 -8 3 -5 6 6 6 11 1 17
-2 13 -5z m-2887 -14 c0 -5 -2 -10 -4 -10 -3 0 -8 5 -11 10 -3 6 -1 10 4 10 6
0 11 -4 11 -10z m88 -15 c-1 -14 -6 -25 -9 -25 -4 0 -14 -3 -23 -6 -11 -4 -16
-1 -15 12 0 11 3 14 6 6 7 -18 23 -4 17 16 -5 14 -4 15 5 2 9 -13 11 -13 11 3
0 9 2 17 5 17 3 0 4 -11 3 -25z m3892 15 c0 -5 -4 -10 -10 -10 -5 0 -10 5 -10
10 0 6 5 10 10 10 6 0 10 -4 10 -10z m-3707 -42 c3 -8 -4 -13 -19 -13 -13 0
-24 3 -24 8 0 4 -5 7 -11 7 -6 0 -8 -9 -4 -22 5 -20 4 -21 -5 -6 -7 12 -8 24
-1 37 6 10 7 22 3 26 -4 4 7 0 24 -8 17 -9 34 -22 37 -29z m-450 11 c-8 -8
-13 -7 -18 2 -5 8 -4 10 3 5 7 -4 12 -2 12 5 0 7 3 9 7 6 4 -4 2 -12 -4 -18z
m196 -8 c-15 -5 -22 6 -14 19 6 9 10 9 16 -1 5 -8 4 -15 -2 -18z m3755 13 c3
-8 2 -12 -4 -9 -6 3 -10 10 -10 16 0 14 7 11 14 -7z m203 -9 c4 -4 2 -5 -6 0
-10 6 -12 2 -6 -16 8 -27 3 -24 -14 8 -9 17 -8 21 4 19 8 -1 18 -6 22 -11z
m225 -39 c-3 -5 -11 2 -18 15 -7 13 -13 18 -14 10 0 -8 -3 -12 -6 -8 -3 3 -3
11 1 17 8 14 45 -20 37 -34z m-4292 12 c0 -6 -6 -5 -15 2 -8 7 -15 14 -15 16
0 2 7 1 15 -2 8 -4 15 -11 15 -16z m410 2 c0 -5 -2 -10 -4 -10 -3 0 -8 5 -11
10 -3 6 -1 10 4 10 6 0 11 -4 11 -10z m3803 -5 c-3 -9 -8 -14 -10 -11 -3 3 -2
9 2 15 9 16 15 13 8 -4z m-4103 -32 c0 -7 -4 -13 -10 -13 -5 0 -6 7 -3 17 4
11 3 14 -5 9 -8 -5 -10 -2 -5 9 5 13 7 14 14 3 5 -7 9 -19 9 -25z m341 0 c-9
-16 -10 -14 -11 12 0 21 3 26 11 18 8 -8 8 -16 0 -30z m3570 10 c-12 -20 -14
-14 -5 12 4 9 9 14 11 11 3 -2 0 -13 -6 -23z m-3692 -24 c-7 -4 -17 -5 -23 -2
-5 4 -7 -3 -4 -15 4 -12 2 -20 -3 -16 -5 3 -9 12 -9 20 0 8 -4 14 -10 14 -5 0
-10 5 -10 11 0 6 5 7 13 2 24 -15 39 -11 45 10 6 20 7 20 10 3 2 -10 -2 -22
-9 -27z m3423 19 c-7 -7 -12 -8 -12 -2 0 14 12 26 19 19 2 -3 -1 -11 -7 -17z
m118 8 c0 -2 -8 -10 -17 -17 -16 -13 -17 -12 -4 4 13 16 21 21 21 13z m63 -3
c-7 -2 -19 -2 -25 0 -7 3 -2 5 12 5 14 0 19 -2 13 -5z m-3746 -17 c0 -8 -6
-12 -15 -9 -11 5 -11 7 0 14 7 5 13 9 14 9 0 0 1 -6 1 -14z m236 -1 c-3 -9 -8
-14 -10 -11 -3 3 -2 9 2 15 9 16 15 13 8 -4z m3384 -7 c-3 -8 -6 -5 -6 6 -1
11 2 17 5 13 3 -3 4 -12 1 -19z m-3782 2 c3 -6 -1 -7 -9 -4 -18 7 -21 14 -7
14 6 0 13 -4 16 -10z m3905 -1 c0 -5 -4 -8 -9 -5 -5 3 -11 -1 -15 -9 -3 -8
-10 -15 -16 -15 -5 0 -2 9 7 20 19 22 33 26 33 9z m-185 -20 c-10 -15 -25 -10
-19 6 4 8 10 12 15 9 5 -3 7 -10 4 -15z m-3353 -30 c-3 -21 -1 -30 6 -25 6 3
14 2 17 -4 4 -6 1 -9 -5 -8 -7 2 -14 -6 -16 -16 -5 -34 -36 -55 -84 -56 -25
-1 -91 -1 -147 -1 l-103 1 0 29 c0 18 6 31 17 35 14 6 244 10 269 5 33 -6 42
2 35 29 -9 29 -4 55 8 48 4 -3 6 -19 3 -37z m38 21 c-6 -11 -8 -25 -5 -30 3
-5 -1 -7 -9 -4 -14 5 -13 9 1 30 19 29 28 32 13 4z m50 0 c0 -5 -7 -7 -15 -4
-8 4 -12 10 -9 15 6 11 24 2 24 -11z m3600 10 c0 -5 -2 -10 -4 -10 -3 0 -8 5
-11 10 -3 6 -1 10 4 10 6 0 11 -4 11 -10z m264 2 c2 -4 -4 -8 -14 -8 -10 0
-16 4 -14 8 3 4 9 8 14 8 5 0 11 -4 14 -8z m-497 -8 c-3 -3 -12 -4 -19 -1 -8
3 -5 6 6 6 11 1 17 -2 13 -5z m260 -9 c0 -8 -4 -12 -9 -9 -5 3 -6 10 -3 15 9
13 12 11 12 -6z m138 5 c-3 -5 -12 -10 -18 -10 -7 0 -6 4 3 10 19 12 23 12 15
0z m-4301 -15 c3 -8 14 -15 25 -15 23 0 36 -16 21 -25 -5 -3 -10 -12 -10 -18
0 -7 4 -6 10 3 8 13 10 12 10 -2 0 -10 -4 -18 -10 -18 -14 0 -6 -40 11 -51 9
-5 10 -9 2 -9 -6 0 -15 5 -18 11 -5 7 -15 3 -29 -10 -21 -20 -91 -27 -79 -7 3
4 -5 5 -18 2 -13 -3 -19 -3 -13 0 8 3 10 20 7 45 -7 51 23 89 65 81 24 -5 26
-4 13 11 -7 10 -9 17 -3 17 5 0 12 -7 16 -15z m67 -2 c13 -16 12 -17 -3 -4
-10 7 -18 15 -18 17 0 8 8 3 21 -13z m52 2 c-3 -9 -8 -14 -10 -11 -3 3 -2 9 2
15 9 16 15 13 8 -4z m3934 -7 c-3 -8 -6 -5 -6 6 -1 11 2 17 5 13 3 -3 4 -12 1
-19z m-3876 -5 c13 -16 12 -17 -3 -4 -10 7 -18 15 -18 17 0 8 8 3 21 -13z
m166 0 c3 -7 -3 -9 -16 -6 -12 3 -21 10 -21 15 0 13 32 6 37 -9z m1723 -508
l0 -525 -100 0 -100 0 -2 98 c-4 279 -4 280 -78 330 -32 22 -39 22 -327 22
l-294 0 -39 -37 c-21 -21 -106 -109 -189 -197 l-151 -158 0 -119 0 -119 257
-255 c142 -140 266 -255 275 -255 11 0 25 -15 35 -37 51 -104 170 -106 241 -3
38 57 23 144 -34 189 -41 32 -141 27 -179 -9 l-26 -24 -219 219 -220 220 0 74
0 73 151 159 151 159 259 0 259 0 0 -208 c0 -264 -14 -246 187 -250 l144 -3
-3 -517 c-3 -493 -4 -520 -24 -578 -55 -162 -196 -279 -349 -292 -75 -6 -173
11 -229 40 -101 51 -187 173 -202 286 l-7 52 -78 0 c-136 0 -236 32 -333 106
-79 60 -133 170 -137 281 l-3 57 -123 119 c-140 136 -194 210 -222 305 -37
125 -36 132 9 57 31 -52 91 -118 229 -253 l186 -183 5 -114 c5 -109 6 -115 34
-144 32 -33 54 -39 74 -19 15 15 17 274 2 312 -5 14 -82 101 -171 193 -90 93
-175 188 -191 213 -38 60 -57 130 -59 215 -2 114 -8 105 69 105 82 0 91 6 226
150 50 52 148 155 219 228 l129 132 242 0 c195 0 246 3 262 15 20 13 23 12 45
-23 30 -45 61 -62 119 -62 115 0 185 119 133 227 -47 99 -210 98 -257 -1 -9
-19 -16 -39 -16 -45 0 -14 -17 -14 -25 -1 -4 6 -108 10 -279 10 -267 0 -273 0
-302 -22 -16 -13 -128 -128 -248 -255 l-219 -233 -45 0 -45 0 6 45 c12 86 45
132 232 330 100 104 199 209 221 233 l39 43 284 2 284 2 76 83 75 82 183 0
183 0 0 -525z m610 450 c36 -41 72 -77 81 -80 10 -3 139 -7 288 -8 l271 -2
218 -224 c119 -123 225 -237 235 -252 20 -31 47 -120 47 -156 0 -12 -8 -24
-19 -28 -42 -13 -48 -8 -436 393 l-118 122 -266 0 c-222 0 -270 -3 -288 -15
-24 -17 -28 -14 -37 31 -17 80 -132 120 -215 76 -94 -50 -94 -196 0 -260 28
-20 44 -23 92 -20 46 4 63 10 87 33 16 16 32 37 36 47 5 17 7 17 27 3 18 -12
64 -15 263 -15 l241 0 237 -240 c131 -132 248 -247 259 -255 14 -10 45 -15 89
-15 l68 0 0 -72 c0 -87 -23 -188 -52 -237 -12 -20 -97 -112 -189 -206 -91 -93
-174 -184 -183 -202 -13 -25 -16 -62 -16 -177 0 -135 1 -146 20 -156 24 -13
50 -1 79 36 18 23 21 41 21 134 l0 107 61 59 c131 126 285 281 313 313 16 19
42 59 57 90 33 64 35 58 13 -31 -33 -132 -92 -218 -247 -362 l-104 -97 -7 -77
c-19 -233 -216 -384 -480 -370 l-60 3 -13 -64 c-29 -140 -92 -230 -201 -283
-62 -31 -73 -33 -172 -33 -87 0 -116 4 -169 24 -76 29 -164 106 -204 178 -59
109 -60 122 -65 676 l-4 507 140 0 c199 0 186 -17 192 247 l5 208 255 3 254 2
158 -157 158 -158 0 -70 0 -70 -221 -222 -221 -221 -35 24 c-45 30 -114 32
-159 5 -41 -25 -75 -95 -68 -141 12 -80 91 -140 166 -126 39 7 94 53 108 90 5
15 15 23 22 21 8 -3 124 106 276 258 l262 263 0 111 0 112 -57 63 c-31 35
-118 125 -192 201 l-136 137 -294 0 c-277 0 -295 -1 -326 -20 -64 -40 -69 -57
-75 -250 l-5 -175 -102 -3 -103 -3 0 526 0 525 188 0 187 -1 65 -74z m-2252
40 c-3 -3 -9 2 -12 12 -6 14 -5 15 5 6 7 -7 10 -15 7 -18z m3979 10 c0 -8 -4
-12 -9 -9 -5 3 -6 10 -3 15 9 13 12 11 12 -6z m-4316 -18 c-10 -9 -11 -8 -5 6
3 10 9 15 12 12 3 -3 0 -11 -7 -18z m4299 -2 c18 -19 21 -31 16 -56 -15 -77
-97 -78 -140 -2 -8 15 18 69 36 76 31 13 66 6 88 -18z m-540 -1 c0 -14 -3 -14
-15 -4 -8 7 -15 14 -15 16 0 2 7 4 15 4 8 0 15 -7 15 -16z m345 -47 c1 -21 -3
-40 -8 -44 -6 -4 -7 -1 -3 6 6 10 -22 12 -125 11 -74 -1 -141 -1 -150 -1 -19
1 -53 47 -45 60 3 4 78 8 168 7 l162 -1 1 -38z m-4085 -41 c0 -2 -7 -7 -16
-10 -8 -3 -12 -2 -9 4 6 10 25 14 25 6z m4047 -28 c4 -28 -6 -18 -12 12 -2 12
-1 20 2 16 4 -4 8 -16 10 -28z m-4363 4 c3 -5 -1 -9 -9 -9 -8 0 -12 4 -9 9 3
4 7 8 9 8 2 0 6 -4 9 -8z m100 -18 c3 -8 2 -12 -4 -9 -6 3 -10 10 -10 16 0 14
7 11 14 -7z m4081 5 c11 -16 1 -19 -13 -3 -7 8 -8 14 -3 14 5 0 13 -5 16 -11z
m-3615 -3 c0 -2 -7 -7 -16 -10 -8 -3 -12 -2 -9 4 6 10 25 14 25 6z m3690 -1
c0 -2 -6 -8 -13 -14 -10 -8 -14 -7 -14 2 0 8 6 14 14 14 7 0 13 -1 13 -2z
m-46 -64 c3 -5 -1 -14 -8 -20 -10 -9 -16 -9 -21 -1 -4 6 -3 10 2 9 20 -3 27 2
13 11 -9 6 -10 10 -3 10 6 0 14 -4 17 -9z m-3854 -253 c49 -58 46 -126 -6
-167 l-24 -19 4 -228 c2 -126 5 -285 5 -354 l1 -126 31 -18 c81 -48 65 -166
-26 -196 -58 -19 -129 24 -141 86 -6 34 4 62 41 105 21 26 22 33 24 371 2 309
1 347 -14 362 -9 9 -21 16 -26 16 -16 0 -49 64 -49 96 0 35 31 81 64 95 35 15
94 3 116 -23z m4147 12 c67 -41 63 -157 -7 -183 l-30 -11 0 -363 c0 -288 3
-364 13 -370 25 -15 47 -58 47 -91 0 -25 -9 -43 -34 -68 -29 -29 -41 -34 -81
-34 -98 0 -140 99 -74 175 17 19 37 35 45 35 12 0 14 58 14 356 l0 356 -30 35
c-52 59 -36 138 34 169 43 18 66 17 103 -6z m-4351 -575 c15 -23 15 -27 0 -50
-9 -14 -25 -25 -36 -25 -25 0 -53 41 -43 66 15 41 55 46 79 9z m4499 5 c24
-27 13 -68 -22 -76 -19 -5 -30 -2 -40 11 -18 26 -16 62 5 74 25 15 37 13 57
-9z m-4635 -704 c0 -18 -7 -25 -27 -29 -16 -3 -30 -4 -32 -2 -8 9 12 25 31 25
17 0 18 2 8 15 -10 12 -10 15 4 15 10 0 16 -9 16 -24z m17 2 c-3 -8 -6 -5 -6
6 -1 11 2 17 5 13 3 -3 4 -12 1 -19z m543 7 c40 -21 60 -53 60 -98 0 -76 -50
-127 -126 -127 -28 0 -44 8 -70 34 -30 30 -34 40 -34 86 0 46 4 56 34 86 38
38 86 45 136 19z m3704 -15 c83 -74 40 -197 -73 -208 -45 -4 -53 -2 -80 25
-56 56 -54 131 5 182 48 43 100 43 148 1z m-4191 -10 c3 -11 1 -20 -4 -20 -5
0 -9 9 -9 20 0 11 2 20 4 20 2 0 6 -9 9 -20z m65 -15 c-3 -3 -9 2 -12 12 -6
14 -5 15 5 6 7 -7 10 -15 7 -18z m-24 0 c3 -8 1 -15 -4 -15 -6 0 -10 7 -10 15
0 8 2 15 4 15 2 0 6 -7 10 -15z m-26 -37 c-2 -6 8 -12 22 -12 14 0 24 6 23 12
-2 6 3 9 10 6 16 -6 40 -44 28 -44 -5 0 -12 7 -15 16 -3 8 -11 12 -16 9 -8 -5
-7 -12 2 -23 11 -14 9 -14 -8 1 -23 19 -39 23 -29 7 4 -6 1 -9 -7 -8 -7 2 -12
-3 -10 -10 1 -8 -2 -11 -8 -7 -8 5 -8 11 -1 19 14 17 4 26 -28 27 -25 1 -25 2
4 9 17 4 31 8 33 9 1 0 1 -4 0 -11z m-38 -58 c0 -5 -4 -10 -10 -10 -5 0 -10 5
-10 10 0 6 5 10 10 10 6 0 10 -4 10 -10z m-40 -20 c0 -5 -2 -10 -4 -10 -3 0
-8 5 -11 10 -3 6 -1 10 4 10 6 0 11 -4 11 -10z m4687 -22 c-3 -7 -5 -2 -5 12
0 14 2 19 5 13 2 -7 2 -19 0 -25z m-216 -11 c-10 -9 -11 -8 -5 6 3 10 9 15 12
12 3 -3 0 -11 -7 -18z m166 -39 c-3 -7 -5 -2 -5 12 0 14 2 19 5 13 2 -7 2 -19
0 -25z m36 12 c-3 -11 -7 -20 -9 -20 -2 0 -4 9 -4 20 0 11 4 20 9 20 5 0 7 -9
4 -20z m-83 -120 c0 -5 -2 -10 -4 -10 -3 0 -8 5 -11 10 -3 6 -1 10 4 10 6 0
11 -4 11 -10z m-3797 -40 c45 -50 34 -130 -23 -163 -44 -27 -94 -22 -132 12
-28 25 -33 36 -33 74 0 48 27 89 70 108 36 16 88 2 118 -31z m3228 17 c45 -30
66 -85 49 -128 -15 -35 -63 -69 -98 -69 -42 0 -90 30 -107 66 -21 44 -13 83
23 116 47 44 84 48 133 15z m-3027 -376 c22 -25 13 -58 -20 -73 -19 -9 -28 -8
-44 7 -24 22 -25 42 -3 67 21 23 45 23 67 -1z m2756 -1 c24 -24 24 -30 7 -54
-18 -24 -67 -18 -78 10 -9 25 14 64 37 64 8 0 23 -9 34 -20z m-2302 -232 c19
-19 14 -56 -9 -68 -47 -25 -93 15 -69 60 12 23 58 28 78 8z m1863 -9 c16 -31
-3 -69 -35 -69 -45 0 -73 49 -44 78 20 20 66 14 79 -9z m-943 -5 c26 -18 29
-56 6 -78 -21 -22 -50 -20 -75 5 -22 22 -19 55 9 77 21 16 33 15 60 -4z m-334
-110 c22 -8 20 -51 -1 -61 -10 -5 -85 -6 -168 -3 -134 4 -150 7 -153 23 -8 41
13 47 163 47 79 0 150 -3 159 -6z m932 -2 c18 -12 23 -40 10 -52 -8 -6 -78
-13 -160 -17 -132 -6 -148 -4 -166 12 -24 22 -25 29 -4 49 13 13 42 16 162 16
81 0 152 -4 158 -8z m-597 -53 c59 -21 79 -97 38 -145 -19 -21 -32 -27 -67
-27 -35 0 -48 6 -67 27 -25 29 -30 74 -12 107 8 16 33 32 75 49 1 0 15 -5 33
-11z"/>
<path d="M4522 7440 c-54 -33 -71 -105 -40 -163 12 -22 67 -57 91 -57 15 0 17
-10 17 -75 l0 -75 -86 0 c-85 0 -86 0 -80 -22 3 -13 6 -38 6 -55 l0 -33 70 0
c44 0 82 -6 100 -15 21 -11 36 -12 54 -5 48 18 54 41 58 235 4 212 -2 233 -66
265 -53 25 -82 25 -124 0z"/>
<path d="M4375 7009 c-11 -16 -1 -19 13 -3 7 8 8 14 3 14 -5 0 -13 -5 -16 -11z"/>
<path d="M4362 6926 c7 -8 15 -12 17 -11 5 6 -10 25 -20 25 -5 0 -4 -6 3 -14z"/>
<path d="M5479 7421 l-39 -39 0 -186 c0 -148 3 -193 15 -216 18 -35 56 -47
100 -31 17 6 64 11 103 11 l72 0 0 39 c0 22 3 46 6 55 5 14 -5 16 -79 16 l-85
0 -7 36 c-3 20 -4 53 0 73 5 31 12 39 51 55 49 20 74 56 74 106 0 71 -53 120
-131 120 -35 0 -48 -6 -80 -39z"/>
<path d="M3295 6800 c3 -5 14 -10 23 -10 15 0 15 2 2 10 -20 13 -33 13 -25 0z"/>
<path d="M4196 5776 c-150 -56 -190 -255 -72 -364 78 -72 178 -79 258 -18 75
56 110 145 89 223 -33 122 -166 199 -275 159z m123 -137 c27 -29 34 -65 19
-97 -43 -89 -178 -42 -154 54 16 61 94 87 135 43z"/>
<path d="M3528 5565 c-10 -22 -9 -29 9 -46 38 -38 89 3 63 51 -16 29 -58 26
-72 -5z"/>
<path d="M4653 5340 c-66 -40 -85 -146 -38 -211 48 -66 48 -64 41 -414 -6
-292 -5 -333 9 -352 20 -29 68 -30 95 -3 19 19 20 33 20 365 l0 344 31 23 c62
45 81 137 44 208 -29 57 -139 79 -202 40z"/>
<path d="M3978 4935 c-30 -17 -42 -43 -31 -71 7 -18 76 -85 296 -291 l77 -73
0 -55 c0 -80 14 -105 61 -105 55 0 69 25 69 124 l0 80 -197 198 c-120 119
-208 199 -223 202 -14 3 -37 -1 -52 -9z"/>
<path d="M5827 5776 c-89 -25 -147 -105 -147 -206 0 -125 94 -220 215 -220 37
0 112 33 143 63 65 60 84 168 44 242 -59 110 -147 151 -255 121z m126 -147
c24 -30 22 -84 -5 -109 -29 -27 -91 -27 -118 0 -31 31 -27 93 7 120 34 27 89
22 116 -11z"/>
<path d="M6556 5571 c-9 -10 -14 -25 -10 -35 6 -17 34 -36 53 -36 14 0 41 29
41 45 0 19 -28 45 -49 45 -10 0 -25 -8 -35 -19z"/>
<path d="M5354 5346 c-38 -17 -73 -65 -81 -110 -8 -49 26 -117 71 -146 l37
-23 -2 -350 c-2 -332 -2 -350 16 -363 29 -21 72 -17 89 8 14 19 16 72 16 374
0 316 2 353 17 365 9 8 25 33 35 57 56 127 -68 244 -198 188z"/>
<path d="M5903 4740 l-203 -200 0 -78 c0 -90 15 -122 58 -122 15 0 38 7 50 16
19 13 22 24 22 84 0 65 2 70 33 95 30 26 107 98 275 258 76 73 87 100 54 130
-10 10 -34 17 -53 17 -31 -1 -54 -20 -236 -200z"/>
<path d="M4130 8190 c0 -5 8 -7 18 -4 14 5 14 3 -2 -10 -20 -16 -20 -16 0 -16
13 0 20 7 21 20 1 14 -4 20 -18 20 -10 0 -19 -4 -19 -10z"/>
<path d="M3313 7826 l-18 -21 22 19 c20 16 25 17 40 5 9 -8 14 -9 10 -2 -4 6
-1 13 5 16 7 2 1 4 -14 4 -16 0 -35 -9 -45 -21z"/>
<path d="M3439 7828 c-5 -16 -4 -46 2 -42 4 2 7 13 6 24 -1 17 -5 26 -8 18z"/>
<path d="M3275 7790 c-3 -6 1 -7 9 -4 18 7 21 14 7 14 -6 0 -13 -4 -16 -10z"/>
<path d="M3263 7747 c-1 -11 -1 -18 0 -16 2 2 8 11 15 20 9 12 9 16 -1 16 -7
0 -14 -9 -14 -20z"/>
<path d="M3224 7729 c-4 -7 -3 -9 4 -5 5 3 13 0 15 -6 4 -9 6 -10 6 -1 1 17
-16 25 -25 12z"/>
<path d="M3189 7688 c-11 -20 -10 -21 3 -11 8 7 18 10 22 6 4 -4 4 0 0 10 -8
22 -11 22 -25 -5z"/>
<path d="M3667 7703 c-11 -11 -8 -20 7 -20 8 0 12 6 9 14 -6 15 -7 15 -16 6z"/>
<path d="M6696 7662 l-19 -27 24 22 c12 12 21 24 18 27 -2 2 -13 -8 -23 -22z"/>
<path d="M3451 7664 c0 -11 3 -14 6 -6 3 7 2 16 -1 19 -3 4 -6 -2 -5 -13z"/>
<path d="M3644 7658 c-10 -16 -13 -48 -3 -43 6 5 19 55 13 55 -1 0 -6 -6 -10
-12z"/>
<path d="M6970 7661 c0 -6 4 -13 10 -16 6 -3 7 1 4 9 -7 18 -14 21 -14 7z"/>
<path d="M3150 7645 c-7 -9 -8 -15 -2 -15 5 0 12 7 16 15 3 8 4 15 2 15 -2 0
-9 -7 -16 -15z"/>
<path d="M3187 7653 c-4 -3 -7 -11 -7 -17 0 -6 5 -5 12 2 6 6 9 14 7 17 -3 3
-9 2 -12 -2z"/>
<path d="M3600 7630 c-13 -8 -12 -10 3 -10 9 0 17 5 17 10 0 12 -1 12 -20 0z"/>
<path d="M6537 7629 c7 -7 15 -10 18 -7 3 3 -2 9 -12 12 -14 6 -15 5 -6 -5z"/>
<path d="M6625 7620 c-28 -7 -28 -8 -5 -9 14 0 32 4 40 9 17 11 8 11 -35 0z"/>
<path d="M3155 7610 c-3 -6 1 -7 9 -4 18 7 21 14 7 14 -6 0 -13 -4 -16 -10z"/>
<path d="M3543 7613 c9 -2 23 -2 30 0 6 3 -1 5 -18 5 -16 0 -22 -2 -12 -5z"/>
<path d="M6633 7585 c0 -8 4 -12 9 -9 5 3 6 10 3 15 -9 13 -12 11 -12 -6z"/>
<path d="M3116 7565 c-3 -9 -10 -13 -16 -10 -6 3 -7 -1 -4 -9 3 -9 1 -16 -5
-16 -8 0 -8 -4 1 -13 9 -10 15 -11 24 -3 8 8 9 13 1 18 -7 4 -7 11 3 22 7 9
11 19 8 22 -3 3 -8 -2 -12 -11z"/>
<path d="M3186 7565 c-9 -26 -7 -32 5 -12 6 10 9 21 6 23 -2 3 -7 -2 -11 -11z"/>
<path d="M7050 7561 c0 -10 27 -41 36 -41 7 0 -15 38 -26 45 -6 3 -10 2 -10
-4z"/>
<path d="M3231 7534 c0 -11 3 -14 6 -6 3 7 2 16 -1 19 -3 4 -6 -2 -5 -13z"/>
<path d="M3417 7519 c7 -7 15 -10 18 -7 3 3 -2 9 -12 12 -14 6 -15 5 -6 -5z"/>
<path d="M6880 7516 c0 -9 5 -16 10 -16 6 0 10 4 10 9 0 6 -4 13 -10 16 -5 3
-10 -1 -10 -9z"/>
<path d="M7015 7520 c-3 -5 -1 -10 4 -10 6 0 11 5 11 10 0 6 -2 10 -4 10 -3 0
-8 -4 -11 -10z"/>
<path d="M7045 7500 c3 -5 10 -10 16 -10 5 0 9 5 9 10 0 6 -7 10 -16 10 -8 0
-12 -4 -9 -10z"/>
<path d="M7090 7501 c0 -5 5 -13 10 -16 6 -3 10 -2 10 4 0 5 -4 13 -10 16 -5
3 -10 2 -10 -4z"/>
<path d="M3041 7481 c-11 -19 -11 -22 0 -16 9 6 11 3 6 -8 -4 -11 -1 -17 8
-17 16 0 18 14 6 45 -8 19 -8 19 -20 -4z"/>
<path d="M7022 7475 c0 -16 2 -22 5 -12 2 9 2 23 0 30 -3 6 -5 -1 -5 -18z"/>
<path d="M3190 7470 c0 -5 5 -10 11 -10 5 0 7 5 4 10 -3 6 -8 10 -11 10 -2 0
-4 -4 -4 -10z"/>
<path d="M3260 7470 c0 -5 5 -10 10 -10 6 0 10 5 10 10 0 6 -4 10 -10 10 -5 0
-10 -4 -10 -10z"/>
<path d="M3332 7450 c0 -14 2 -19 5 -12 2 6 2 18 0 25 -3 6 -5 1 -5 -13z"/>
<path d="M7045 7460 c3 -5 8 -10 11 -10 2 0 4 5 4 10 0 6 -5 10 -11 10 -5 0
-7 -4 -4 -10z"/>
<path d="M7119 7456 c9 -10 8 -15 -4 -20 -8 -3 -15 -12 -15 -20 0 -8 -6 -17
-12 -19 -7 -3 -3 -6 9 -6 12 -1 24 -7 26 -13 3 -7 4 2 3 20 -3 33 8 53 17 30
2 -7 7 -10 11 -7 3 3 -2 16 -13 27 -20 24 -41 31 -22 8z"/>
<path d="M3076 7435 c-15 -20 -22 -22 -37 -14 -11 5 -16 15 -13 21 4 7 2 8 -5
4 -9 -6 -8 -14 4 -33 9 -14 14 -27 11 -31 -3 -3 -6 1 -6 8 0 21 -20 -2 -25
-28 -2 -14 1 -22 11 -22 8 0 15 -10 15 -22 1 -17 3 -18 6 -6 2 9 0 26 -6 36
-9 17 -7 18 14 14 14 -2 25 -8 25 -13 0 -5 7 -9 15 -9 22 0 18 14 -7 25 -13 6
-23 17 -23 25 0 15 4 16 45 19 11 0 20 6 20 11 0 6 -6 9 -12 8 -7 -2 -12 5
-10 15 4 23 0 22 -22 -8z"/>
<path d="M3216 7438 c3 -4 9 -8 15 -8 5 0 9 4 9 8 0 5 -7 9 -15 9 -8 0 -12 -4
-9 -9z"/>
<path d="M3258 7443 c7 -3 16 -2 19 1 4 3 -2 6 -13 5 -11 0 -14 -3 -6 -6z"/>
<path d="M3597 7443 c-10 -9 -9 -23 1 -23 5 0 9 7 9 15 0 17 -1 18 -10 8z"/>
<path d="M6708 7443 c6 -2 18 -2 25 0 6 3 1 5 -13 5 -14 0 -19 -2 -12 -5z"/>
<path d="M6793 7443 c-7 -2 -13 -12 -13 -21 0 -14 2 -14 9 -3 5 7 14 11 20 7
7 -5 9 -1 5 8 -3 9 -7 16 -8 15 0 0 -7 -3 -13 -6z"/>
<path d="M6856 7434 c-3 -8 -10 -12 -16 -9 -6 4 -7 -1 -3 -11 5 -14 2 -16 -15
-12 -28 8 -28 6 4 -21 23 -20 25 -21 20 -3 -4 11 2 29 15 45 11 15 16 27 11
27 -6 0 -13 -7 -16 -16z"/>
<path d="M3160 7429 c0 -5 5 -7 10 -4 6 3 10 8 10 11 0 2 -4 4 -10 4 -5 0 -10
-5 -10 -11z"/>
<path d="M3183 7410 c-6 -17 -7 -30 -2 -30 5 0 9 6 9 14 0 8 6 16 13 19 8 3 9
8 2 16 -8 8 -14 2 -22 -19z"/>
<path d="M3316 7415 c9 -14 12 -30 8 -37 -6 -10 -4 -10 9 0 14 12 15 16 2 29
-8 8 -15 19 -15 24 0 5 -5 9 -10 9 -6 0 -3 -11 6 -25z"/>
<path d="M6461 7424 c0 -11 3 -14 6 -6 3 7 2 16 -1 19 -3 4 -6 -2 -5 -13z"/>
<path d="M6956 7427 c3 -10 9 -15 12 -12 3 3 0 11 -7 18 -10 9 -11 8 -5 -6z"/>
<path d="M3550 7410 c-8 -5 -12 -11 -10 -14 3 -2 14 2 24 10 22 15 10 19 -14
4z"/>
<path d="M6725 7409 c-11 -16 -1 -19 13 -3 7 8 8 14 3 14 -5 0 -13 -5 -16 -11z"/>
<path d="M7000 7410 c0 -5 10 -10 23 -10 18 0 19 2 7 10 -19 13 -30 13 -30 0z"/>
<path d="M6625 7400 c-3 -5 -1 -10 4 -10 6 0 11 5 11 10 0 6 -2 10 -4 10 -3 0
-8 -4 -11 -10z"/>
<path d="M6761 7403 c0 -4 4 -17 9 -28 8 -19 9 -19 9 2 1 12 -3 25 -9 28 -5 3
-10 3 -9 -2z"/>
<path d="M2986 7386 c5 -12 4 -17 -3 -13 -5 3 -10 0 -10 -8 0 -20 13 -19 21 2
4 9 2 21 -4 27 -8 8 -9 6 -4 -8z"/>
<path d="M3370 7390 c0 -5 5 -10 11 -10 5 0 7 5 4 10 -3 6 -8 10 -11 10 -2 0
-4 -4 -4 -10z"/>
<path d="M6958 7280 c3 -105 5 -118 20 -113 10 4 12 8 4 11 -8 2 -12 36 -12
107 0 57 -3 106 -7 108 -5 3 -7 -48 -5 -113z"/>
<path d="M3110 7367 c0 -14 5 -29 10 -32 7 -4 8 3 4 22 -9 38 -14 42 -14 10z"/>
<path d="M3527 7370 c3 -11 9 -20 15 -20 5 0 4 9 -2 20 -6 11 -12 20 -14 20
-2 0 -2 -9 1 -20z"/>
<path d="M6796 7372 c-3 -5 1 -9 9 -9 8 0 12 4 9 9 -3 4 -7 8 -9 8 -2 0 -6 -4
-9 -8z"/>
<path d="M3130 7360 c0 -5 5 -10 10 -10 6 0 10 5 10 10 0 6 -4 10 -10 10 -5 0
-10 -4 -10 -10z"/>
<path d="M3287 7335 c-22 -16 -22 -26 1 -19 16 5 16 5 0 -9 -18 -15 -26 -63
-8 -52 5 3 7 12 4 19 -3 7 2 18 10 25 8 7 12 19 9 27 -3 9 0 12 9 9 9 -4 14
-16 12 -31 -2 -25 -2 -25 17 -8 23 21 25 32 2 13 -15 -12 -16 -12 -10 3 9 24
-23 40 -46 23z"/>
<path d="M6540 7346 c0 -2 7 -7 16 -10 8 -3 12 -2 9 4 -6 10 -25 14 -25 6z"/>
<path d="M6850 7339 c0 -5 4 -9 8 -9 5 0 13 -12 19 -27 l10 -28 0 32 c0 22 -5
33 -18 36 -11 3 -19 1 -19 -4z"/>
<path d="M2953 7328 c4 -12 2 -18 -7 -18 -8 0 -16 -7 -19 -14 -4 -11 -1 -13
10 -9 11 4 14 2 11 -8 -3 -8 -12 -13 -20 -11 -15 2 -33 -26 -23 -36 3 -3 5 0
5 7 0 7 4 10 9 7 14 -9 41 4 41 20 0 9 12 14 36 14 19 0 33 4 30 8 -3 5 -19 7
-36 4 -19 -3 -30 0 -30 8 0 8 9 10 26 6 19 -5 25 -3 21 6 -2 7 -10 12 -17 10
-7 -1 -19 3 -28 10 -13 11 -15 10 -9 -4z"/>
<path d="M6520 7320 c0 -5 5 -10 10 -10 6 0 10 5 10 10 0 6 -4 10 -10 10 -5 0
-10 -4 -10 -10z"/>
<path d="M6745 7320 c3 -5 11 -10 16 -10 6 0 7 5 4 10 -3 6 -11 10 -16 10 -6
0 -7 -4 -4 -10z"/>
<path d="M6820 7322 c0 -4 9 -13 20 -20 11 -7 20 -9 20 -4 0 4 -9 13 -20 20
-11 7 -20 9 -20 4z"/>
<path d="M7080 7319 c0 -5 -10 -9 -22 -7 -15 2 -24 -3 -26 -14 -2 -12 3 -18
15 -18 15 0 16 2 3 11 -11 7 -6 8 19 4 23 -5 31 -4 27 4 -4 6 0 11 8 11 9 0
16 5 16 10 0 6 -9 10 -20 10 -11 0 -20 -5 -20 -11z"/>
<path d="M3529 7293 c-13 -16 -12 -17 4 -4 9 7 17 15 17 17 0 8 -8 3 -21 -13z"/>
<path d="M6980 7300 c0 -5 5 -10 11 -10 5 0 7 5 4 10 -3 6 -8 10 -11 10 -2 0
-4 -4 -4 -10z"/>
<path d="M3395 7280 c6 -10 4 -12 -11 -6 -15 6 -17 5 -6 -5 9 -9 15 -10 23 -2
8 8 7 13 -2 18 -8 6 -10 4 -4 -5z"/>
<path d="M3466 7273 c-6 -14 -5 -15 5 -6 7 7 10 15 7 18 -3 3 -9 -2 -12 -12z"/>
<path d="M6668 7283 c7 -3 16 -2 19 1 4 3 -2 6 -13 5 -11 0 -14 -3 -6 -6z"/>
<path d="M6745 7280 c3 -5 8 -10 11 -10 2 0 4 5 4 10 0 6 -5 10 -11 10 -5 0
-7 -4 -4 -10z"/>
<path d="M6709 7263 c-13 -16 -12 -17 4 -4 9 7 17 15 17 17 0 8 -8 3 -21 -13z"/>
<path d="M6980 7269 c0 -5 5 -7 10 -4 6 3 10 8 10 11 0 2 -4 4 -10 4 -5 0 -10
-5 -10 -11z"/>
<path d="M7012 7260 c0 -14 2 -19 5 -12 2 6 2 18 0 25 -3 6 -5 1 -5 -13z"/>
<path d="M7080 7270 c0 -5 -7 -10 -15 -10 -16 0 -21 -25 -7 -34 12 -7 29 7 36
32 5 13 3 22 -3 22 -6 0 -11 -4 -11 -10z"/>
<path d="M6871 7258 c0 -7 4 -22 9 -33 7 -17 9 -15 9 13 1 17 -3 32 -9 32 -5
0 -10 -6 -9 -12z"/>
<path d="M3430 7250 c0 -5 -8 -6 -17 -3 -17 7 -17 6 0 -11 22 -22 21 -25 -3
-23 -11 1 -20 5 -20 10 0 4 -5 5 -11 1 -8 -4 -7 -9 2 -15 11 -7 11 -9 1 -9 -7
0 -10 -5 -7 -11 5 -6 11 -4 19 7 9 12 15 14 20 6 4 -7 15 -12 24 -12 13 0 14
2 4 9 -18 11 12 36 30 25 10 -6 9 -3 -1 9 -13 16 -14 16 -28 0 -13 -17 -14
-16 -8 5 4 12 4 22 1 22 -3 0 -6 -4 -6 -10z"/>
<path d="M6791 7244 c0 -11 3 -14 6 -6 3 7 2 16 -1 19 -3 4 -6 -2 -5 -13z"/>
<path d="M6728 7227 c-3 -19 -2 -25 4 -19 6 6 8 18 6 28 -3 14 -5 12 -10 -9z"/>
<path d="M3192 7220 c0 -14 2 -19 5 -12 2 6 2 18 0 25 -3 6 -5 1 -5 -13z"/>
<path d="M3499 7227 c7 -7 14 -8 21 -1 6 6 2 10 -12 11 -16 2 -18 -1 -9 -10z"/>
<path d="M6647 7223 c-3 -5 6 -9 20 -10 19 -1 22 1 12 8 -17 11 -26 11 -32 2z"/>
<path d="M6986 7213 c-11 -11 -6 -21 12 -25 11 -3 19 0 19 8 0 15 -22 26 -31
17z"/>
<path d="M3301 7184 c0 -11 3 -14 6 -6 3 7 2 16 -1 19 -3 4 -6 -2 -5 -13z"/>
<path d="M3340 7190 c-13 -8 -12 -10 3 -10 9 0 17 5 17 10 0 12 -1 12 -20 0z"/>
<path d="M3273 7147 c0 -23 2 -32 4 -19 5 26 30 30 36 5 4 -14 5 -12 6 5 1 16
-5 22 -20 22 -11 0 -18 4 -14 9 3 5 1 12 -4 15 -5 3 -8 -13 -8 -37z"/>
<path d="M3395 7169 c-6 -17 -9 -19 -17 -8 -7 10 -8 8 -3 -8 3 -12 1 -24 -5
-28 -5 -3 -10 1 -10 9 0 9 -7 16 -15 16 -12 0 -12 -3 2 -19 9 -11 20 -18 25
-15 4 3 8 1 8 -4 0 -21 -31 -21 -39 0 -6 18 -9 19 -14 5 -4 -11 -12 -14 -24
-10 -10 4 -3 -6 15 -21 17 -15 30 -32 26 -37 -3 -5 -1 -9 5 -9 5 0 11 6 14 13
2 6 7 9 11 6 4 -3 2 -19 -4 -34 -6 -15 -8 -30 -6 -33 3 -3 10 8 16 24 9 23 13
26 21 14 8 -11 8 -8 3 10 -7 27 -23 42 -36 34 -4 -3 -8 0 -8 5 0 6 7 11 16 11
9 0 14 8 13 18 -1 9 -1 24 0 32 1 13 2 13 12 0 8 -12 9 -10 4 9 -5 16 -4 21 4
17 6 -4 11 -3 11 3 0 20 -19 20 -25 0z m-41 -95 c7 -19 2 -18 -19 6 -16 17
-16 20 -3 15 9 -4 19 -13 22 -21z"/>
<path d="M6705 7150 c-3 -5 -1 -10 4 -10 6 0 11 5 11 10 0 6 -2 10 -4 10 -3 0
-8 -4 -11 -10z"/>
<path d="M6748 7103 c7 -3 16 -2 19 1 4 3 -2 6 -13 5 -11 0 -14 -3 -6 -6z"/>
<path d="M6790 7060 c-8 -5 -12 -12 -9 -15 4 -3 12 1 19 10 14 17 11 19 -10 5z"/>
<path d="M3390 6990 c0 -5 -14 -23 -31 -41 -33 -34 -34 -55 0 -53 15 1 20 -3
17 -12 -3 -7 -1 -16 4 -19 5 -3 11 14 13 37 6 52 6 98 1 98 -2 0 -4 -4 -4 -10z
m-2 -52 c-2 -14 -11 -22 -25 -23 -12 -1 -20 2 -17 7 3 4 12 8 20 8 8 0 14 7
14 15 0 8 3 15 6 15 3 0 4 -10 2 -22z"/>
<path d="M2555 5270 c-3 -5 -1 -10 4 -10 6 0 11 5 11 10 0 6 -2 10 -4 10 -3 0
-8 -4 -11 -10z"/>
<path d="M2621 5234 c0 -11 3 -14 6 -6 3 7 2 16 -1 19 -3 4 -6 -2 -5 -13z"/>
<path d="M2685 5230 c3 -5 10 -10 16 -10 5 0 9 5 9 10 0 6 -7 10 -16 10 -8 0
-12 -4 -9 -10z"/>
<path d="M7431 5183 c-1 -6 -4 -20 -7 -30 -5 -17 -5 -17 6 0 6 10 9 23 6 30
-3 9 -5 9 -5 0z"/>
<path d="M2610 5176 c0 -2 9 -6 20 -9 11 -3 18 -1 14 4 -5 9 -34 13 -34 5z"/>
<path d="M7451 5153 c-7 -8 -11 -16 -8 -19 2 -2 10 2 17 11 17 20 9 27 -9 8z"/>
<path d="M2726 5145 c-9 -26 -7 -32 5 -12 6 10 9 21 6 23 -2 3 -7 -2 -11 -11z"/>
<path d="M7615 5149 c-4 -6 -5 -12 -2 -15 2 -3 7 2 10 11 7 17 1 20 -8 4z"/>
<path d="M2541 5124 c0 -11 3 -14 6 -6 3 7 2 16 -1 19 -3 4 -6 -2 -5 -13z"/>
<path d="M2590 5124 c0 -8 5 -12 10 -9 6 3 10 10 10 16 0 5 -4 9 -10 9 -5 0
-10 -7 -10 -16z"/>
<path d="M2641 5114 c0 -11 3 -14 6 -6 3 7 2 16 -1 19 -3 4 -6 -2 -5 -13z"/>
<path d="M7416 5117 c3 -10 9 -15 12 -12 3 3 0 11 -7 18 -10 9 -11 8 -5 -6z"/>
<path d="M2571 5104 c0 -11 3 -14 6 -6 3 7 2 16 -1 19 -3 4 -6 -2 -5 -13z"/>
<path d="M2621 5104 c0 -11 3 -14 6 -6 3 7 2 16 -1 19 -3 4 -6 -2 -5 -13z"/>
<path d="M2689 5101 c17 -11 -1 -23 -23 -15 -9 3 -16 1 -16 -5 0 -13 39 -14
59 -2 17 11 6 31 -17 31 -13 0 -14 -2 -3 -9z"/>
<path d="M2727 5090 c3 -11 7 -20 9 -20 2 0 4 9 4 20 0 11 -4 20 -9 20 -5 0
-7 -9 -4 -20z"/>
<path d="M2750 5090 c0 -5 5 -10 10 -10 6 0 10 5 10 10 0 6 -4 10 -10 10 -5 0
-10 -4 -10 -10z"/>
<path d="M7475 5090 c-19 -8 -19 -9 3 -9 12 -1 22 4 22 9 0 6 -1 10 -2 9 -2 0
-12 -4 -23 -9z"/>
<path d="M2590 5070 c-13 -8 -13 -10 1 -10 9 0 20 -15 27 -37 l11 -38 -6 35
c-8 49 -15 61 -33 50z"/>
<path d="M7385 5050 c-3 -6 1 -13 10 -16 21 -9 26 -2 10 13 -9 8 -16 9 -20 3z"/>
<path d="M7450 5050 c-24 -15 -7 -19 20 -5 15 8 19 14 10 14 -8 1 -22 -3 -30
-9z"/>
<path d="M7566 5045 c4 -8 8 -15 10 -15 2 0 4 7 4 15 0 8 -4 15 -10 15 -5 0
-7 -7 -4 -15z"/>
<path d="M2575 5040 c-6 -9 -4 -11 5 -5 10 6 12 4 7 -8 -3 -9 0 -18 9 -21 18
-7 18 5 1 29 -11 14 -16 15 -22 5z"/>
<path d="M7526 5042 c-3 -4 4 -9 15 -9 23 -2 25 3 4 10 -8 4 -16 3 -19 -1z"/>
<path d="M7527 5000 c3 -11 13 -20 22 -20 13 0 13 2 2 9 -7 5 -10 14 -7 20 4
6 1 11 -7 11 -10 0 -13 -7 -10 -20z"/>
<path d="M7422 4938 c6 -18 28 -21 28 -4 0 9 -7 16 -16 16 -9 0 -14 -5 -12
-12z"/>
<path d="M7457 4919 c-18 -20 -18 -21 0 -35 25 -19 36 -17 24 3 -6 11 -6 24 0
35 13 25 -3 23 -24 -3z"/>
<path d="M7350 4923 c1 -16 30 -46 37 -38 5 4 2 10 -4 12 -7 3 -13 11 -13 19
0 8 -4 14 -10 14 -5 0 -10 -3 -10 -7z"/>
<path d="M7300 4901 c0 -5 5 -13 10 -16 6 -3 10 -2 10 4 0 5 -4 13 -10 16 -5
3 -10 2 -10 -4z"/>
<path d="M7277 4813 c-2 -5 2 -19 9 -33 8 -14 14 -20 14 -15 0 6 3 20 6 33 5
16 2 22 -9 22 -9 0 -18 -3 -20 -7z"/>
</g>
</svg>
